# xmcd
#
# Track frame offsets:
#	150
#	12490
#	31735
#	48810
#	61770
#	77165
#	97950
#	117695
#	134967
#	153232
#	167275
#	183077
#
# Disc length: 2716 seconds
#
# Revision: 1
# Processed by: cddbd v1.5.1PL0 Copyright (c) Steve Scherf et al.
# Submitted via: audiograbber 1.83.01
#
DISCID=8f0a9a0c
DTITLE=Lisa O'KANE - Am I Too Blue
DYEAR=2001
DGENRE=Country
TTITLE0=Romance and finance
TTITLE1=Little black cloud
TTITLE2=Am I too blue
TTITLE3=My sweet love ain't around
TTITLE4=Pineola
TTITLE5=Lovin' you again
TTITLE6=Wall of tears
TTITLE7=All the way with you
TTITLE8=Wanting, wanting you
TTITLE9=Like an old fashioned waltz
TTITLE10=Old crossroad is waitin'
TTITLE11=The valley
EXTD=
EXTT0=
EXTT1=
EXTT2=
EXTT3=
EXTT4=
EXTT5=
EXTT6=
EXTT7=
EXTT8=
EXTT9=
EXTT10=
EXTT11=
PLAYORDER=
